<?xml version="1.0" encoding="UTF-8"?>
<svg width="501px" height="118px" viewBox="0 0 501 118" version="1.1" xmlns="http://www.w3.org/2000/svg" xmlns:xlink="http://www.w3.org/1999/xlink">
    <!-- Generator: Sketch 45.2 (43514) - http://www.bohemiancoding.com/sketch -->
    <title>hexagon-white</title>
    <desc>Created with Sketch.</desc>
    <defs></defs>
    <g id="Page-1" stroke="none" stroke-width="1" fill="none" fill-rule="evenodd">
        <g id="hexagon-white">
            <polygon id="Fill-1" fill="#F04500" points="221 81.7265625 265.242187 101.691406 309.484375 81.7265625 309.484375 20.7734375 265.242187 0 221 20.7734375"></polygon>
            <path d="M22.5980545,82 L11.2397455,31.1327529 L10.790316,31.1327529 C11.3078435,35.0550663 11.5666033,38.6504663 11.5666033,41.9190607 L11.5666033,82 L1.27058223,82 L1.27058223,22.2667348 L18.3489029,22.2667348 L28.5632096,69.2116881 L28.8900674,69.2116881 L39.0226596,22.2667348 L56.3461236,22.2667348 L56.3461236,82 L45.8049592,82 L45.8049592,41.5104885 C45.8049592,38.1601791 45.9956243,34.7282064 46.3769604,31.2144674 L46.0501025,31.2144674 L34.7326508,82 L22.5980545,82 Z M102.160489,82 L98.7284818,66.9236834 L83.1618785,66.9236834 L79.7298715,82 L68.6167059,82 L83.4070219,22.0215914 L98.4833385,22.0215914 L113.314512,82 L102.160489,82 Z M96.6447633,57.0770918 L93.4578996,43.1856348 C93.2672316,42.3412479 92.838235,40.2235028 92.170897,36.832336 C91.5035589,33.4411693 91.1018002,31.1736159 90.9656088,30.0296078 C90.6115111,32.3721005 90.1620861,34.9528895 89.6173203,37.7720522 C89.0725546,40.591215 87.6561849,47.0261638 85.3681687,57.0770918 L96.6447633,57.0770918 Z M162.806027,82 L150.957432,82 L141.151697,56.4642334 L136.69826,60.9176711 L136.69826,82 L125.585094,82 L125.585094,22.2667348 L136.69826,22.2667348 L136.69826,51.888224 L140.579696,42.9404914 L150.753146,22.2667348 L162.642598,22.2667348 L148.832856,48.1293592 L162.806027,82 Z M202.001522,82 L175.07661,82 L175.07661,22.2667348 L202.001522,22.2667348 L202.001522,31.868183 L186.189775,31.868183 L186.189775,46.0864979 L200.85752,46.0864979 L200.85752,55.7288033 L186.189775,55.7288033 L186.189775,72.2759801 L202.001522,72.2759801 L202.001522,82 Z" id="MAKE" fill="#FFFFFF"></path>
            <path d="M340.383748,58.7522381 L340.383748,82 L329.270582,82 L329.270582,22.2667348 L343.815755,22.2667348 C349.971608,22.2667348 354.513524,23.7239613 357.44164,26.638458 C360.369756,29.5529547 361.833792,34.0063479 361.833792,39.9987711 C361.833792,47.5437767 359.28705,52.8143062 354.19349,55.8105178 L365.674371,82 L353.784918,82 L344.346899,58.7522381 L340.383748,58.7522381 Z M340.383748,49.1916471 L343.243754,49.1916471 C345.858629,49.1916471 347.738043,48.4494149 348.882051,46.9649282 C350.026059,45.4804416 350.598054,43.2673639 350.598054,40.3256289 C350.598054,37.2749407 349.992012,35.1027199 348.779908,33.8089013 C347.567804,32.5150826 345.6952,31.868183 343.162039,31.868183 L340.383748,31.868183 L340.383748,49.1916471 Z M405.033295,82 L378.108382,82 L378.108382,22.2667348 L405.033295,22.2667348 L405.033295,31.868183 L389.221548,31.868183 L389.221548,46.0864979 L403.889292,46.0864979 L403.889292,55.7288033 L389.221548,55.7288033 L389.221548,72.2759801 L405.033295,72.2759801 L405.033295,82 Z M449.009085,82 L445.577078,66.9236834 L430.010474,66.9236834 L426.578467,82 L415.465302,82 L430.255618,22.0215914 L445.331934,22.0215914 L460.163107,82 L449.009085,82 Z M443.493359,57.0770918 L440.306495,43.1856348 C440.115827,42.3412479 439.686831,40.2235028 439.019493,36.832336 C438.352155,33.4411693 437.950396,31.1736159 437.814204,30.0296078 C437.460107,32.3721005 437.010682,34.9528895 436.465916,37.7720522 C435.92115,40.591215 434.504781,47.0261638 432.216764,57.0770918 L443.493359,57.0770918 Z M472.43369,82 L472.43369,22.2667348 L483.546855,22.2667348 L483.546855,72.2759801 L498.95003,72.2759801 L498.95003,82 L472.43369,82 Z" id="REAL" fill="#FFFFFF"></path>
            <path d="M423.792969,95.1152344 C422.421868,95.1152344 421.340824,95.9179607 420.549805,97.5234375 C419.758785,99.1289143 419.363281,101.361314 419.363281,104.220703 C419.363281,110.173858 420.916,113.150391 424.021484,113.150391 C425.380866,113.150391 426.80468,112.716801 428.292969,111.849609 L428.292969,116.103516 C427.039056,116.935551 425.433604,117.351562 423.476562,117.351562 C420.582017,117.351562 418.358406,116.200207 416.805664,113.897461 C415.252922,111.594715 414.476562,108.357443 414.476562,104.185547 C414.476562,100.013651 415.276359,96.7617304 416.875977,94.4296875 C418.475594,92.0976446 420.699205,90.9316406 423.546875,90.9316406 C424.48438,90.9316406 425.383785,91.0605456 426.245117,91.3183594 C427.10645,91.5761732 428.029292,92.0273405 429.013672,92.671875 L427.431641,96.5566406 C426.904294,96.1933576 426.3418,95.8623062 425.744141,95.5634766 C425.146481,95.2646469 424.496097,95.1152344 423.792969,95.1152344 Z M446.345703,117 L444.869141,110.513672 L438.171875,110.513672 L436.695312,117 L431.914062,117 L438.277344,91.1953125 L444.763672,91.1953125 L451.144531,117 L446.345703,117 Z M443.972656,106.277344 L442.601562,100.300781 C442.519531,99.9374982 442.334962,99.0263745 442.047852,97.5673828 C441.760741,96.1083911 441.587891,95.132815 441.529297,94.640625 C441.376952,95.6484425 441.183595,96.758783 440.949219,97.9716797 C440.714843,99.1845764 440.105474,101.953103 439.121094,106.277344 L443.972656,106.277344 Z M464.837891,117 L459.951172,95.1152344 L459.757812,95.1152344 C459.98047,96.8027428 460.091797,98.3496023 460.091797,99.7558594 L460.091797,117 L455.662109,117 L455.662109,91.3007812 L463.009766,91.3007812 L467.404297,111.498047 L467.544922,111.498047 L471.904297,91.3007812 L479.357422,91.3007812 L479.357422,117 L474.822266,117 L474.822266,99.5800781 C474.822266,98.1386647 474.904296,96.6621169 475.068359,95.1503906 L474.927734,95.1503906 L470.058594,117 L464.837891,117 Z M500.152344,99.2109375 C500.152344,101.94142 499.463874,104.036126 498.086914,105.495117 C496.709954,106.954109 494.720716,107.683594 492.119141,107.683594 L490.923828,107.683594 L490.923828,117 L486.142578,117 L486.142578,91.3007812 L492.664062,91.3007812 C497.656275,91.3007812 500.152344,93.9374736 500.152344,99.2109375 Z M490.923828,103.535156 L491.837891,103.535156 C493.009771,103.535156 493.88281,103.212894 494.457031,102.568359 C495.031253,101.923825 495.318359,100.869148 495.318359,99.4042969 C495.318359,98.0566339 495.05469,97.0576204 494.527344,96.4072266 C493.999997,95.7568327 493.185552,95.4316406 492.083984,95.4316406 L490.923828,95.4316406 L490.923828,103.535156 Z" id="CAMP" fill="#FFFFFF"></path>
            <polygon id="Fill-2" fill="#F04500" points="0 100.487 57.088 100.487 57.088 91 0 91"></polygon>
            <path d="M245.5625,74 L245.5625,28.3125 L253.5625,28.3125 L253.5625,74 L245.5625,74 Z M282.897059,74 L274.428309,74 L274.428309,35.78125 L265.678309,35.78125 L265.678309,28.3125 L291.647059,28.3125 L291.647059,35.78125 L282.897059,35.78125 L282.897059,74 Z" id="IT" fill="#FFFFFF"></path>
        </g>
    </g>
</svg>